<svg xmlns="http://www.w3.org/2000/svg" viewBox="0 0 16 16" shape-rendering="crispEdges"><path fill="#e6e7e8" d="M3 3h10v1H3zM2 4h2v1H2zM12 4h2v1h-2zM2 5h1v1H2zM13 5h1v1h-1zM2 6h12v1H2zM3 7h2v1H3zM11 7h2v1h-2zM3 8h2v1H3zM11 8h2v1h-2z"/><path fill="#d1d3d4" d="M7 1h1v1H7zM7 2h1v1H7zM4 4h8v1H4zM5 7h6v1H5zM5 8h6v1H5z"/><path fill="#66757f" d="M8 10h6v1H8zM8 11h5v1H8zM8 12h5v1H8zM8 13h4v1H8z"/><path fill="#99aab5" d="M2 10h6v1H2zM3 11h5v1H3zM3 12h5v1H3zM4 13h4v1H4z"/><path fill="#55acee" d="M0 14h16v1H0zM0 15h16v1H0z"/><path fill="#a7a9ac" d="M8 1h1v1H8zM8 2h1v1H8z"/><path fill="#292f33" d="M8 0h1v1H8z"/><path fill="#58595b" d="M7 0h1v1H7z"/><path fill="#88898b" d="M3 5h10v1H3z"/><path fill="#a0041e" d="M8 9h6v1H8z"/><path fill="#be1931" d="M2 9h6v1H2z"/></svg>