<svg xmlns="http://www.w3.org/2000/svg" shape-rendering="crispEdges" viewBox="0 0 16 16"><path fill="#e6e7e8" d="M3 3h10v1H3zM2 4h2v1H2zm10 0h2v1h-2zM2 5h1v1H2zm11 0h1v1h-1zM2 6h12v1H2zm1 1h2v1H3zm8 0h2v1h-2zM3 8h2v1H3zm8 0h2v1h-2z"/><path fill="#d1d3d4" d="M7 1h1v1H7zm0 1h1v1H7zM4 4h8v1H4zm1 3h6v1H5zm0 1h6v1H5z"/><path fill="#66757f" d="M8 10h6v1H8zm0 1h5v1H8zm0 1h5v1H8zm0 1h4v1H8z"/><path fill="#99aab5" d="M2 10h6v1H2zm1 1h5v1H3zm0 1h5v1H3zm1 1h4v1H4z"/><path fill="#55acee" d="M0 14h16v1H0zm0 1h16v1H0z"/><path fill="#a7a9ac" d="M8 1h1v1H8zm0 1h1v1H8z"/><path fill="#292f33" d="M8 0h1v1H8z"/><path fill="#58595b" d="M7 0h1v1H7z"/><path fill="#88898b" d="M3 5h10v1H3z"/><path fill="#a0041e" d="M8 9h6v1H8z"/><path fill="#be1931" d="M2 9h6v1H2z"/></svg>