<svg xmlns="http://www.w3.org/2000/svg" viewBox="0 0 32 32" shape-rendering="crispEdges"><path fill="#e6e7e8" d="M8 6h16v1H8zM8 7h1v1H8zM23 7h1v1h-1zM6 8h20v1H6zM6 9h2v1H6zM24 9h2v1h-2zM6 10h2v1H6zM24 10h2v1h-2zM6 11h20v1H6zM6 12h20v1H6zM7 13h2v1H7zM23 13h2v1h-2zM7 14h2v1H7zM23 14h2v1h-2zM7 15h2v1H7zM23 15h2v1h-2zM7 16h2v1H7zM23 16h2v1h-2z"/><path fill="#d1d3d4" d="M14 3h2v1h-2zM14 4h2v1h-2zM14 5h2v1h-2zM9 13h14v1H9zM9 14h14v1H9zM9 15h2v1H9zM21 15h2v1h-2zM9 16h2v1H9zM21 16h2v1h-2z"/><path fill="#66757f" d="M16 17h11v1H16zM16 18h11v1H16zM16 21h10v1H16zM16 22h10v1H16zM16 23h9v1h-9zM16 24h9v1h-9zM16 25h8v1h-8zM16 26h8v1h-8z"/><path fill="#99aab5" d="M4 17h12v1H4zM4 18h12v1H4zM5 21h11v1H5zM5 22h11v1H5zM6 23h10v1H6zM6 24h10v1H6zM7 25h9v1H7zM7 26h9v1H7z"/><path fill="#55acee" d="M0 27h32v1H0zM0 28h32v1H0zM0 29h32v1H0zM0 30h32v1H0zM0 31h32v1H0z"/><path fill="#292f33" d="M16 0h2v1h-2zM16 1h2v1h-2zM16 2h2v1h-2z"/><path fill="#58595b" d="M14 0h2v1h-2zM14 1h2v1h-2zM14 2h2v1h-2z"/><path fill="#a7a9ac" d="M16 3h2v1h-2zM16 4h2v1h-2zM16 5h2v1h-2z"/><path fill="#bcbec0" d="M9 7h14v1H9zM11 15h10v1H11zM11 16h10v1H11z"/><path fill="#6d6e71" d="M8 9h16v1H8zM8 10h16v1H8z"/><path fill="#a0041e" d="M16 19h11v1H16zM16 20h11v1H16z"/><path fill="#be1931" d="M4 19h12v1H4zM4 20h12v1H4z"/></svg>