<svg xmlns="http://www.w3.org/2000/svg" shape-rendering="crispEdges" viewBox="0 0 32 32"><path fill="#e6e7e8" d="M8 6h16v1H8zm0 1h1v1H8zm15 0h1v1h-1zM6 8h20v1H6zm0 1h2v1H6zm18 0h2v1h-2zM6 10h2v1H6zm18 0h2v1h-2zM6 11h20v1H6zm0 1h20v1H6zm1 1h2v1H7zm16 0h2v1h-2zM7 14h2v1H7zm16 0h2v1h-2zM7 15h2v1H7zm16 0h2v1h-2zM7 16h2v1H7zm16 0h2v1h-2z"/><path fill="#d1d3d4" d="M14 3h2v1h-2zm0 1h2v1h-2zm0 1h2v1h-2zm-5 8h14v1H9zm0 1h14v1H9zm0 1h2v1H9zm12 0h2v1h-2zM9 16h2v1H9zm12 0h2v1h-2z"/><path fill="#66757f" d="M16 17h11v1H16zm0 1h11v1H16zm0 3h10v1H16zm0 1h10v1H16zm0 1h9v1h-9zm0 1h9v1h-9zm0 1h8v1h-8zm0 1h8v1h-8z"/><path fill="#99aab5" d="M4 17h12v1H4zm0 1h12v1H4zm1 3h11v1H5zm0 1h11v1H5zm1 1h10v1H6zm0 1h10v1H6zm1 1h9v1H7zm0 1h9v1H7z"/><path fill="#55acee" d="M0 27h32v1H0zm0 1h32v1H0zm0 1h32v1H0zm0 1h32v1H0zm0 1h32v1H0z"/><path fill="#292f33" d="M16 0h2v1h-2zm0 1h2v1h-2zm0 1h2v1h-2z"/><path fill="#58595b" d="M14 0h2v1h-2zm0 1h2v1h-2zm0 1h2v1h-2z"/><path fill="#a7a9ac" d="M16 3h2v1h-2zm0 1h2v1h-2zm0 1h2v1h-2z"/><path fill="#bcbec0" d="M9 7h14v1H9zm2 8h10v1H11zm0 1h10v1H11z"/><path fill="#6d6e71" d="M8 9h16v1H8zm0 1h16v1H8z"/><path fill="#a0041e" d="M16 19h11v1H16zm0 1h11v1H16z"/><path fill="#be1931" d="M4 19h12v1H4zm0 1h12v1H4z"/></svg>