<svg xmlns="http://www.w3.org/2000/svg" shape-rendering="crispEdges" viewBox="0 0 64 64"><path fill="#58595b" d="M28 0h4v1h-4zm0 1h4v1h-4zm0 1h4v1h-4zm0 1h4v1h-4z"/><path fill="#292f33" d="M32 0h4v1h-4zm0 1h4v1h-4zm0 1h4v1h-4zm0 1h4v1h-4z"/><path fill="#d1d3d4" d="M28 4h4v1h-4zm0 1h4v1h-4zm0 1h4v1h-4zm0 1h4v1h-4zm0 1h4v1h-4zM18 27h28v1H18zm0 1h28v1H18zm0 1h28v1H18zm0 1h3v1h-3zm25 0h3v1h-3zm-25 1h3v1h-3zm25 0h3v1h-3zm-25 1h3v1h-3zm25 0h3v1h-3zm-25 1h3v1h-3zm25 0h3v1h-3z"/><path fill="#a7a9ac" d="M32 4h4v1h-4zm0 1h4v1h-4zm0 1h4v1h-4zm0 1h4v1h-4zm0 1h4v1h-4z"/><path fill="#e6e7e8" d="M15 9h34v1H15zm0 1h34v1H15zm0 1h34v1H15zm0 1h34v1H15zm0 1h3v1h-3zm31 0h3v1h-3zm-31 1h3v1h-3zm31 0h3v1h-3zm-31 1h3v1h-3zm31 0h3v1h-3zm-35 1h42v1H11zm0 1h42v1H11zm0 1h42v1H11zm0 1h3v1h-3zm39 0h3v1h-3zm-39 1h3v1h-3zm39 0h3v1h-3zm-39 1h3v1h-3zm39 0h3v1h-3zm-39 1h3v1h-3zm39 0h3v1h-3zm-39 1h42v1H11zm0 1h42v1H11zm0 1h42v1H11zm3 1h36v1H14zm0 1h4v1h-4zm32 0h4v1h-4zm-32 1h4v1h-4zm32 0h4v1h-4zm-32 1h4v1h-4zm32 0h4v1h-4zm-33 1h5v1h-5zm33 0h5v1h-5zm-33 1h5v1h-5zm33 0h5v1h-5zm-33 1h5v1h-5zm33 0h5v1h-5zm-33 1h5v1h-5zm33 0h5v1h-5z"/><path fill="#bcbec0" d="M18 13h28v1H18zm0 1h28v1H18zm0 1h28v1H18zm3 15h22v1H21zm0 1h22v1H21zm0 1h22v1H21zm0 1h22v1H21z"/><path fill="#88898b" d="M14 19h1v1h-1zm35 0h1v1h-1zm-35 1h1v1h-1zm35 0h1v1h-1zm-35 1h1v1h-1zm35 0h1v1h-1zm-35 1h1v1h-1zm35 0h1v1h-1z"/><path fill="#6d6e71" d="M15 19h34v1H15zm0 1h34v1H15zm0 1h34v1H15zm0 1h34v1H15z"/><path fill="#99aab5" d="M9 34h23v1H9zm0 1h23v1H9zm0 1h23v1H9zm2 5h21v1H11zm0 1h21v1H11zm0 1h21v1H11zm1 1h20v1H12zm0 1h20v1H12zm0 1h20v1H12zm1 1h19v1H13zm0 1h19v1H13zm0 1h19v1H13zm1 1h18v1H14zm0 1h18v1H14zm1 1h17v1H15zm0 1h17v1H15z"/><path fill="#66757f" d="M32 34h23v1H32zm0 1h23v1H32zm0 1h23v1H32zm0 5h21v1H32zm0 1h21v1H32zm0 1h21v1H32zm0 1h20v1H32zm0 1h20v1H32zm0 1h20v1H32zm0 1h19v1H32zm0 1h19v1H32zm0 1h19v1H32zm0 1h18v1H32zm0 1h18v1H32zm0 1h17v1H32zm0 1h17v1H32z"/><path fill="#be1931" d="M10 37h22v1H10zm0 1h22v1H10zm0 1h22v1H10zm0 1h22v1H10z"/><path fill="#a0041e" d="M32 37h22v1H32zm0 1h22v1H32zm0 1h22v1H32zm0 1h22v1H32z"/><path fill="#55acee" d="M0 54h64v1H0zm0 1h64v1H0zm0 1h64v1H0zm0 1h64v1H0zm0 1h64v1H0zm0 1h64v1H0zm0 1h64v1H0zm0 1h64v1H0zm0 1h64v1H0zm0 1h64v1H0z"/></svg>