<svg xmlns="http://www.w3.org/2000/svg" viewBox="0 0 64 64" shape-rendering="crispEdges"><path fill="#e6e7e8" d="M15 9h34v1H15zM15 10h34v1H15zM15 11h34v1H15zM15 12h34v1H15zM15 13h3v1h-3zM46 13h3v1h-3zM15 14h3v1h-3zM46 14h3v1h-3zM15 15h3v1h-3zM46 15h3v1h-3zM11 16h42v1H11zM11 17h42v1H11zM11 18h42v1H11zM11 19h3v1h-3zM50 19h3v1h-3zM11 20h3v1h-3zM50 20h3v1h-3zM11 21h3v1h-3zM50 21h3v1h-3zM11 22h3v1h-3zM50 22h3v1h-3zM11 23h42v1H11zM11 24h42v1H11zM11 25h42v1H11zM14 26h36v1H14zM14 27h4v1h-4zM46 27h4v1h-4zM14 28h4v1h-4zM46 28h4v1h-4zM14 29h4v1h-4zM46 29h4v1h-4zM13 30h5v1h-5zM46 30h5v1h-5zM13 31h5v1h-5zM46 31h5v1h-5zM13 32h5v1h-5zM46 32h5v1h-5zM13 33h5v1h-5zM46 33h5v1h-5z"/><path fill="#66757f" d="M32 34h23v1H32zM32 35h23v1H32zM32 36h23v1H32zM32 41h21v1H32zM32 42h21v1H32zM32 43h21v1H32zM32 44h20v1H32zM32 45h20v1H32zM32 46h20v1H32zM32 47h19v1H32zM32 48h19v1H32zM32 49h19v1H32zM32 50h18v1H32zM32 51h18v1H32zM32 52h17v1H32zM32 53h17v1H32z"/><path fill="#99aab5" d="M9 34h23v1H9zM9 35h23v1H9zM9 36h23v1H9zM11 41h21v1H11zM11 42h21v1H11zM11 43h21v1H11zM12 44h20v1H12zM12 45h20v1H12zM12 46h20v1H12zM13 47h19v1H13zM13 48h19v1H13zM13 49h19v1H13zM14 50h18v1H14zM14 51h18v1H14zM15 52h17v1H15zM15 53h17v1H15z"/><path fill="#d1d3d4" d="M28 4h4v1h-4zM28 5h4v1h-4zM28 6h4v1h-4zM28 7h4v1h-4zM28 8h4v1h-4zM18 27h28v1H18zM18 28h28v1H18zM18 29h28v1H18zM18 30h3v1h-3zM43 30h3v1h-3zM18 31h3v1h-3zM43 31h3v1h-3zM18 32h3v1h-3zM43 32h3v1h-3zM18 33h3v1h-3zM43 33h3v1h-3z"/><path fill="#55acee" d="M0 54h64v1H0zM0 55h64v1H0zM0 56h64v1H0zM0 57h64v1H0zM0 58h64v1H0zM0 59h64v1H0zM0 60h64v1H0zM0 61h64v1H0zM0 62h64v1H0zM0 63h64v1H0z"/><path fill="#88898b" d="M14 19h1v1h-1zM49 19h1v1h-1zM14 20h1v1h-1zM49 20h1v1h-1zM14 21h1v1h-1zM49 21h1v1h-1zM14 22h1v1h-1zM49 22h1v1h-1z"/><path fill="#bcbec0" d="M18 13h28v1H18zM18 14h28v1H18zM18 15h28v1H18zM21 30h22v1H21zM21 31h22v1H21zM21 32h22v1H21zM21 33h22v1H21z"/><path fill="#a7a9ac" d="M32 4h4v1h-4zM32 5h4v1h-4zM32 6h4v1h-4zM32 7h4v1h-4zM32 8h4v1h-4z"/><path fill="#292f33" d="M32 0h4v1h-4zM32 1h4v1h-4zM32 2h4v1h-4zM32 3h4v1h-4z"/><path fill="#58595b" d="M28 0h4v1h-4zM28 1h4v1h-4zM28 2h4v1h-4zM28 3h4v1h-4z"/><path fill="#6d6e71" d="M15 19h34v1H15zM15 20h34v1H15zM15 21h34v1H15zM15 22h34v1H15z"/><path fill="#a0041e" d="M32 37h22v1H32zM32 38h22v1H32zM32 39h22v1H32zM32 40h22v1H32z"/><path fill="#be1931" d="M10 37h22v1H10zM10 38h22v1H10zM10 39h22v1H10zM10 40h22v1H10z"/></svg>